<svg width="400" height="400" xmlns="http://www.w3.org/2000/svg">
 <g>
  <title>Layer 1</title>
  <path id="svg_16" d="m124,229" opacity="NaN" stroke-width="9" stroke="#000" fill="none"/>
  <path id="svg_17" d="m344.47554,264.11558c-23.03015,-47.59297 -52.91707,-54.11558 -113.05025,-54.11558c-60.13319,0 -68,-1 -68,-1l-54,34c-46.22625,0.95903 -60.5646,32.25598 -62,51c-1.4354,18.74402 22.05594,12.04655 23.29885,12.14943c1.24292,0.10287 3.22714,-30.75173 32.30881,-30.17702c29.08167,0.57471 30.81763,31.35162 31.39234,31.0276c0.57471,-0.32403 116,2 116,2c6.32184,0 0.97039,-32.70115 35.57471,-32.12644c34.60432,0.57471 33.42529,32.12644 33.42529,32.12644c0,0 23,-1 23,-1c0,0 27.98995,3.24488 30,-87c2.01005,-90.24488 -65.95241,-99 -78,-99c-12.04759,0 -57,2 -98,-9" opacity="NaN" stroke-width="9" stroke="#000" fill="none"/>
  <path transform="rotate(-111.111, 134.207, 113.57)" id="svg_18" d="m176.20669,113.92292l-16.35984,-6.49267l13.17864,-33.19875c1.17666,-2.96267 -0.26895,-6.32457 -3.24003,-7.50124c-2.97108,-1.17666 -6.32877,0.27315 -7.50123,3.24003l-13.17864,33.19875l-20.50758,-8.14l13.17444,-33.19875c1.18087,-2.96688 -0.26895,-6.32878 -3.23583,-7.50544c-2.96687,-1.17246 -6.32877,0.27315 -7.50123,3.24003l-13.17864,33.19875l-16.35143,-6.48847l-6.78263,17.08685l9.0351,3.58883l-10.66142,26.85737c-2.56345,6.47166 0.60094,13.79639 7.07259,16.36825l6.83306,2.71473l-3.68548,9.27464c-1.71037,4.30743 0.39923,9.19479 4.71506,10.90936l3.90821,1.55068c4.31163,1.71457 9.19479,-0.39923 10.90936,-4.71086l3.68548,-9.27464l7.80801,3.09715c6.47165,2.56765 13.80059,-0.59674 16.37244,-7.06839l10.65301,-26.85737l8.06015,3.19801l6.77843,-17.08685z" stroke-width="9" stroke="#000" fill="none"/>
  <ellipse ry="19.54023" rx="19.54023" id="svg_19" cy="308.04597" cx="102.87356" stroke-width="9" stroke="#000" fill="none"/>
  <ellipse ry="19.54023" rx="19.54023" id="svg_21" cy="309.1954" cx="285.63218" stroke-width="9" stroke="#000" fill="none"/>
 </g>

</svg>