<svg width="400" height="400" xmlns="http://www.w3.org/2000/svg">
 <g>
  <title>Layer 1</title>
  <path id="svg_16" d="m124,229" opacity="NaN" stroke-width="9" stroke="#000" fill="none"/>
  <rect id="svg_25" height="277.41946" width="159.67748" y="29.03234" x="120.16127" stroke-width="9" stroke="#000" fill="none"/>
  <rect id="svg_26" height="338.7098" width="159.67748" y="29.03234" x="120.16127" stroke-width="9" stroke="#000" fill="none"/>
  <path id="svg_27" d="m184.43468,208.67126c-18.76732,-7.05198 -32.21912,-29.45951 -29.16206,-48.57719c1.92769,-12.05515 42.59699,-85.23831 46.14871,-83.04322c1.15923,0.71644 11.47496,17.77851 22.92384,37.91571c18.3399,32.25767 20.81613,38.27273 20.81613,50.56484c0,24.91561 -19.94038,45.32431 -43.88294,44.91361c-6.98678,-0.11987 -14.56644,-0.91805 -16.84368,-1.77373l0,0zm18.80274,-12.53163c0.62121,-3.22569 -0.8299,-4.79884 -4.42659,-4.79884c-8.19722,0 -19.56809,-10.38201 -22.10852,-20.18584c-2.70994,-10.45803 -9.89522,-11.7018 -10.95652,-1.89657c-2.04475,18.89117 34.04684,44.76857 37.49162,26.88124l0,0z" stroke-width="5" stroke="#000" fill="none"/>
  <path id="svg_29" d="m213.70983,308.87116c0,17.74194 3.96785,23.38711 24.19356,23.38711c20.22571,0 18.54839,25.00001 18.54839,33.06453" opacity="NaN" stroke-width="6" stroke="#000" fill="none"/>
  <path id="svg_30" d="m184.67756,306.4518c0,20.1613 5.65101,25.80646 -115.32262,25.00001" opacity="NaN" stroke-width="6" stroke="#000" fill="none"/>
 </g>

</svg>